<svg xmlns="http://www.w3.org/2000/svg" viewBox="0 0 61.1 61.1"><path d="M14.2 46.3c-2.3-.1-4.7 0-7.2 0-.4 0-.8.1-1 0-.2 0-.4-.4-.5-.7-2.3-3.7-4.1-8.3-4.3-14.1-.2-6.6 1.6-11.6 3.9-15.7 1.1-2 2.6-3.9 4.3-5.6 4-4.1 9.1-7.3 16-8.5 1.4-.2 2.9-.3 4.4-.4 2.7-.1 5.6.4 7.8.9 2.4.7 4.4 1.5 6.3 2.5 3.9 2 6.9 4.6 9.4 7.9a28.95 28.95 0 014.9 26.7 29.1 29.1 0 01-16.5 18.1c-3.9 1.7-9.2 2.7-14.8 2.1-5.1-.6-9.1-2.3-12.6-4.7-.1-2.9-.1-5.7-.1-8.5zm16.7 7.1c3.8-.1 7.4-1.2 10.3-2.7 2.8-1.5 5.3-3.6 7.2-6.1 2-2.5 3.5-5.5 4.3-9 .9-3.9.7-8-.3-11.4-1-3.3-2.6-6.2-4.6-8.6a23.09 23.09 0 00-18.5-8c-2 .1-4 .5-5.8 1.1-5.3 1.7-9.4 5-12.2 9.2-2.4 3.4-4.2 8.1-3.9 13.9.1 2.6.6 4.9 1.6 7 .1.2.4 1.1.6 1.2.3.1.8 0 1.1 0h3.4c.1-2.5.1-4.8.1-7.2 0-1.2-.1-2.4 0-3.6a15.47 15.47 0 016.2-11.9c2.8-2.1 6.6-3.7 11.1-3.4 4.1.3 7.4 2.2 9.9 4.7 2.5 2.4 4.4 5.8 4.8 9.8.5 4.8-1.1 8.5-3.1 11.2-2 2.7-5.1 5-8.8 6-3.7 1-9.3.2-13.9.6V51c3.1 1.7 6.4 2.5 10.5 2.4zm1.4-13.7c3.4-.5 5.8-2.7 7-5.6.6-1.5.9-3.4.7-5.2-.2-1.7-.8-3.1-1.8-4.4a9.88 9.88 0 00-8.5-4.2c-2.2.1-4 .8-5.5 1.9a9.6 9.6 0 00-4 6.9c-.1 1.1-.1 2.3-.1 3.6 0 2.4-.1 4.9.1 7.2 4.2-.1 8.8.3 12.1-.2z" fill-rule="evenodd" clip-rule="evenodd" fill="#67768A"/></svg>
